<svg width="99" height="99" viewBox="0 0 99 99" fill="none" xmlns="http://www.w3.org/2000/svg">
<path d="M32.175 8.25H66.825C80.025 8.25 90.75 18.975 90.75 32.175V66.825C90.75 73.1703 88.2293 79.2557 83.7425 83.7425C79.2557 88.2293 73.1703 90.75 66.825 90.75H32.175C18.975 90.75 8.25 80.025 8.25 66.825V32.175C8.25 25.8297 10.7707 19.7443 15.2575 15.2575C19.7443 10.7707 25.8297 8.25 32.175 8.25ZM31.35 16.5C27.4115 16.5 23.6344 18.0645 20.8495 20.8495C18.0645 23.6344 16.5 27.4115 16.5 31.35V67.65C16.5 75.8587 23.1412 82.5 31.35 82.5H67.65C71.5885 82.5 75.3656 80.9354 78.1505 78.1505C80.9354 75.3656 82.5 71.5885 82.5 67.65V31.35C82.5 23.1412 75.8587 16.5 67.65 16.5H31.35ZM71.1562 22.6875C72.5238 22.6875 73.8353 23.2307 74.8023 24.1977C75.7692 25.1647 76.3125 26.4762 76.3125 27.8437C76.3125 29.2113 75.7692 30.5228 74.8023 31.4898C73.8353 32.4568 72.5238 33 71.1562 33C69.7887 33 68.4772 32.4568 67.5102 31.4898C66.5432 30.5228 66 29.2113 66 27.8437C66 26.4762 66.5432 25.1647 67.5102 24.1977C68.4772 23.2307 69.7887 22.6875 71.1562 22.6875ZM49.5 28.875C54.9701 28.875 60.2161 31.048 64.0841 34.9159C67.952 38.7839 70.125 44.0299 70.125 49.5C70.125 54.9701 67.952 60.2161 64.0841 64.0841C60.2161 67.952 54.9701 70.125 49.5 70.125C44.0299 70.125 38.7839 67.952 34.9159 64.0841C31.048 60.2161 28.875 54.9701 28.875 49.5C28.875 44.0299 31.048 38.7839 34.9159 34.9159C38.7839 31.048 44.0299 28.875 49.5 28.875ZM49.5 37.125C46.2179 37.125 43.0703 38.4288 40.7495 40.7495C38.4288 43.0703 37.125 46.2179 37.125 49.5C37.125 52.782 38.4288 55.9297 40.7495 58.2504C43.0703 60.5712 46.2179 61.875 49.5 61.875C52.782 61.875 55.9297 60.5712 58.2504 58.2504C60.5712 55.9297 61.875 52.782 61.875 49.5C61.875 46.2179 60.5712 43.0703 58.2504 40.7495C55.9297 38.4288 52.782 37.125 49.5 37.125Z" fill="white"/>
</svg>
